<svg width="57" height="58" viewBox="0 0 57 58" fill="none" xmlns="http://www.w3.org/2000/svg">
<path d="M35.3322 38.0732V33.9068H30.265V30.7539H43.5523V33.9068H38.4851V38.0732M38.4851 39.9875V46.1808H35.3322V39.9875" stroke="#49B348" stroke-linecap="round" stroke-linejoin="round"/>
<path d="M44.9675 37.7345C44.9675 37.7721 44.9302 37.9381 44.5308 38.1866C44.1581 38.4185 43.5856 38.6456 42.8337 38.8435C41.3373 39.2372 39.2426 39.4866 36.9095 39.4866C34.5765 39.4866 32.4817 39.2372 30.9854 38.8435C30.2335 38.6456 29.6609 38.4185 29.2882 38.1866C28.8889 37.9381 28.8516 37.7721 28.8516 37.7345C28.8516 37.697 28.8889 37.5309 29.2882 37.2824C29.6609 37.0505 30.2335 36.8234 30.9854 36.6256C32.4817 36.2318 34.5765 35.9824 36.9095 35.9824C39.2426 35.9824 41.3373 36.2318 42.8337 36.6256C43.5856 36.8234 44.1581 37.0505 44.5308 37.2824C44.9302 37.5309 44.9675 37.697 44.9675 37.7345Z" stroke="#49B348"/>
<rect x="35.6871" y="34.6992" width="2.44792" height="2.51135" fill="#050C05"/>
<path d="M32.5605 19.9005L36.8433 11.1055M32.5605 19.9005L36.8433 17.7742M32.5605 19.9005L36.8433 22.0268M36.8433 11.1055L40.9816 19.9005M36.8433 11.1055V17.7742M40.9816 19.9005L36.8433 17.7742M40.9816 19.9005L36.8433 22.0268M36.8433 17.7742V22.0268M36.8433 24.0564L40.9816 22.3651L36.8433 27.2458M36.8433 24.0564V27.2458M36.8433 24.0564L32.5605 22.3651L36.8433 27.2458" stroke="#49B348" stroke-linecap="round" stroke-linejoin="round"/>
<path d="M10.1055 30.7539L17.962 37.2728M10.1055 30.7539L22.6622 33.0896M10.1055 30.7539L16.6583 46.8943M17.962 37.2728L22.6622 33.0896M17.962 37.2728L25.5441 36.0875M17.962 37.2728L16.6583 46.8943M22.6622 33.0896L25.5441 36.0875M25.5441 36.0875L16.6583 46.8943" stroke="#49B348" stroke-linecap="round" stroke-linejoin="round"/>
<path d="M21.178 18.4024C21.6953 17.9337 22.062 17.3122 22.2292 16.6212C22.3964 15.9301 22.3561 15.2026 22.1135 14.536C21.8709 13.8695 21.4378 13.2958 20.8721 12.8918C20.3065 12.4878 19.6353 12.2728 18.9485 12.2756H17.8211V10.8721C17.8211 10.7481 17.7736 10.6291 17.6891 10.5413C17.6045 10.4536 17.4898 10.4043 17.3702 10.4043C17.2506 10.4043 17.1359 10.4536 17.0513 10.5413C16.9667 10.6291 16.9192 10.7481 16.9192 10.8721V12.2756H14.2135V10.8721C14.2135 10.7481 14.166 10.6291 14.0814 10.5413C13.9969 10.4536 13.8822 10.4043 13.7626 10.4043C13.643 10.4043 13.5283 10.4536 13.4437 10.5413C13.3591 10.6291 13.3116 10.7481 13.3116 10.8721V12.2756H11.9588C11.8392 12.2756 11.7245 12.3249 11.6399 12.4127C11.5553 12.5004 11.5078 12.6194 11.5078 12.7435C11.5078 12.8676 11.5553 12.9866 11.6399 13.0743C11.7245 13.162 11.8392 13.2113 11.9588 13.2113H13.3116V24.4394H11.9588C11.8392 24.4394 11.7245 24.4887 11.6399 24.5764C11.5553 24.6641 11.5078 24.7831 11.5078 24.9072C11.5078 25.0313 11.5553 25.1503 11.6399 25.238C11.7245 25.3258 11.8392 25.3751 11.9588 25.3751H13.3116V26.7786C13.3116 26.9026 13.3591 27.0216 13.4437 27.1094C13.5283 27.1971 13.643 27.2464 13.7626 27.2464C13.8822 27.2464 13.9969 27.1971 14.0814 27.1094C14.166 27.0216 14.2135 26.9026 14.2135 26.7786V25.3751H16.9192V26.7786C16.9192 26.9026 16.9667 27.0216 17.0513 27.1094C17.1359 27.1971 17.2506 27.2464 17.3702 27.2464C17.4898 27.2464 17.6045 27.1971 17.6891 27.1094C17.7736 27.0216 17.8211 26.9026 17.8211 26.7786V25.3751H20.7523C21.6124 25.3787 22.4414 25.0414 23.0697 24.4321C23.698 23.8227 24.0783 22.9874 24.1326 22.0969C24.187 21.2063 23.9114 20.3279 23.3622 19.6412C22.813 18.9545 22.0317 18.5113 21.178 18.4024ZM14.2135 13.2113H18.9485C19.6063 13.2113 20.2372 13.4824 20.7023 13.965C21.1674 14.4475 21.4287 15.102 21.4287 15.7844C21.4287 16.4668 21.1674 17.1213 20.7023 17.6039C20.2372 18.0864 19.6063 18.3575 18.9485 18.3575H14.2135V13.2113ZM20.7523 24.4394H14.2135V19.2932H20.7523C21.4101 19.2932 22.041 19.5643 22.5061 20.0468C22.9712 20.5294 23.2325 21.1839 23.2325 21.8663C23.2325 22.5487 22.9712 23.2032 22.5061 23.6857C22.041 24.1683 21.4101 24.4394 20.7523 24.4394Z" fill="#49B348"/>
<circle cx="28.5" cy="29" r="27.5" stroke="#49B348" stroke-width="2"/>
</svg>
