<svg width="65" height="68" viewBox="0 0 65 68" fill="none" xmlns="http://www.w3.org/2000/svg">
<circle cx="14.5" cy="14.5" r="13.5" stroke="#49B348" stroke-width="2"/>
<circle cx="50.5" cy="53.5" r="13.5" stroke="#49B348" stroke-width="2"/>
<path d="M19 10.4617C17.972 9.67083 16.1629 9.12167 14.5 9.08667M14.5 9.08667C12.5219 9.04583 10.7507 9.735 10.7507 11.615C10.7507 15.0767 19 13.3458 19 16.8075C19 18.7825 16.8042 19.6308 14.5 19.5667M14.5 9.08667V7M10 17.9617C10.9674 18.9533 12.7646 19.5183 14.5 19.5667M14.5 19.5667V22" stroke="#49B348" stroke-width="2" stroke-linecap="round" stroke-linejoin="round"/>
<path fill-rule="evenodd" clip-rule="evenodd" d="M49.1994 59.7216L47.6815 59.3149L47.1743 61.208L45.2769 60.6996L45.7842 58.8065L45.289 58.6738L45.2901 58.6696L43.5085 58.1922L44.0169 56.2949L45.7985 56.7722L48.0761 48.2721L46.2945 47.7947L46.8029 45.8974L49.0797 46.5074L49.5881 44.6101L51.4855 45.1185L50.9771 47.0158L52.4949 47.4225L53.0033 45.5252L54.9007 46.0336L54.3923 47.9309L53.9369 47.8089C56.2472 48.4279 57.3785 50.0009 56.8738 51.8846C56.5129 53.2313 55.2059 54.087 53.8492 53.9333L53.8309 54.0016C55.467 54.5771 56.368 56.1249 55.9318 57.7528C55.3705 59.8475 53.488 60.7759 50.9879 60.1963L51.0979 60.2258L50.5895 62.1231L48.6922 61.6147L49.1994 59.7216ZM50.6449 48.9824L49.7885 52.1787L51.638 52.6742C53.0102 53.0419 53.9564 52.6467 54.235 51.607C54.5 50.6181 53.96 49.8706 52.7586 49.5487L50.6449 48.9824ZM48.3772 57.4457L50.5933 58.0395C52.0763 58.4369 53.0463 58.0208 53.3614 56.8449C53.6698 55.6939 53.0074 54.8588 51.4903 54.4522L49.3345 53.8746L48.3772 57.4457Z" fill="#49B348"/>
<path d="M34 14H45.5C48.5 14.0005 54 15.2889 54 22.5C54 29.4995 53.8333 31.833 54 31.9995M54 31.9995L48.5 25.4995M54 31.9995L59 25.4995" stroke="#49B348" stroke-width="2" stroke-linecap="round" stroke-linejoin="round"/>
<path d="M31 52.5L19.5 52.5C16.5 52.4995 11 51.2111 11 44C11 37.0005 11.1667 34.667 11 34.5005M11 34.5005L16.5 41.0005M11 34.5005L6 41.0005" stroke="#49B348" stroke-width="2" stroke-linecap="round" stroke-linejoin="round"/>
</svg>
