<svg width="60" height="65" viewBox="0 0 60 65" fill="none" xmlns="http://www.w3.org/2000/svg">
<circle cx="30" cy="30" r="15" stroke="#49B348" stroke-width="2"/>
<path d="M34 25.6924C32.972 24.8489 31.1629 24.2631 29.5 24.2258M29.5 24.2258C27.5219 24.1822 25.7507 24.9173 25.7507 26.9227C25.7507 30.6151 34 28.7689 34 32.4613C34 34.568 31.8042 35.4729 29.5 35.4044M29.5 24.2258V22M25 33.6924C25.9674 34.7502 27.7646 35.3529 29.5 35.4044M29.5 35.4044V38" stroke="#49B348" stroke-width="2" stroke-linecap="round" stroke-linejoin="round"/>
<path d="M24.0191 58.4273C23.9111 58.9409 24.2398 59.4465 24.7566 59.5382C31.4169 60.7207 38.2924 59.6183 44.2601 56.3941C50.5071 53.019 55.3544 47.5377 57.9401 40.9248C60.5257 34.312 60.6821 26.9965 58.3814 20.2792C56.0807 13.5619 51.4721 7.87839 45.3751 4.23944C39.2781 0.600484 32.0881 -0.758006 25.0837 0.405572C18.0794 1.56915 11.7147 5.17937 7.12178 10.5941C2.52883 16.0089 0.00530722 22.8773 8.35405e-06 29.9776C-0.00505373 36.7607 2.28839 43.3354 6.49065 48.6363C6.81672 49.0476 7.41774 49.0969 7.81852 48.758C8.2193 48.4191 8.26798 47.8203 7.9428 47.4083C4.03055 42.4515 1.89602 36.3122 1.90074 29.979C1.90571 23.3285 4.26935 16.8954 8.5713 11.8237C12.8732 6.75195 18.8346 3.37047 25.3952 2.28061C31.9558 1.19076 38.6903 2.46317 44.401 5.87157C50.1116 9.27997 54.4283 14.6034 56.5832 20.8951C58.7382 27.1868 58.5917 34.0388 56.1698 40.2327C53.748 46.4265 49.2078 51.5606 43.3566 54.7218C37.7847 57.7322 31.3679 58.7677 25.1481 57.6772C24.6311 57.5866 24.1272 57.9137 24.0191 58.4273Z" fill="#49B348"/>
<path d="M29.374 53.5215L22.6281 58.7169L28.8914 64.0104" stroke="#49B348" stroke-width="2" stroke-linecap="round" stroke-linejoin="round"/>
</svg>
