<svg width="61" height="60" viewBox="0 0 61 60" fill="none" xmlns="http://www.w3.org/2000/svg">
<circle cx="47" cy="14" r="13" stroke="#49B348" stroke-width="2"/>
<circle cx="14" cy="19" r="13" stroke="#49B348" stroke-width="2"/>
<path d="M50 10.2309C49.2004 9.49278 47.7933 8.98022 46.5 8.94756M46.5 8.94756C44.9615 8.90944 43.5839 9.55267 43.5839 11.3073C43.5839 14.5382 50 12.9228 50 16.1537C50 17.997 48.2921 18.7888 46.5 18.7289M46.5 8.94756V7M43 17.2309C43.7524 18.1564 45.1502 18.6838 46.5 18.7289M46.5 18.7289V21" stroke="#49B348" stroke-width="2" stroke-linecap="round" stroke-linejoin="round"/>
<rect x="2" y="37.5" width="25" height="5" rx="2.5" stroke="#49B348" stroke-width="2"/>
<rect x="35" y="37.5" width="25" height="5" rx="2.5" stroke="#49B348" stroke-width="2"/>
<rect x="35" y="32" width="25" height="5" rx="2.5" stroke="#49B348" stroke-width="2"/>
<rect x="2" y="43" width="25" height="5" rx="2.5" stroke="#49B348" stroke-width="2"/>
<rect x="35" y="43" width="25" height="5" rx="2.5" stroke="#49B348" stroke-width="2"/>
<rect x="2" y="48.5" width="25" height="5" rx="2.5" stroke="#49B348" stroke-width="2"/>
<rect x="35" y="48.5" width="25" height="5" rx="2.5" stroke="#49B348" stroke-width="2"/>
<rect x="2" y="54" width="25" height="5" rx="2.5" stroke="#49B348" stroke-width="2"/>
<rect x="35" y="54" width="25" height="5" rx="2.5" stroke="#49B348" stroke-width="2"/>
<path d="M10.0625 18.125C9.21667 18.125 8.49479 17.826 7.89688 17.2281C7.29896 16.6302 7 15.9083 7 15.0625C7 14.2167 7.29896 13.4948 7.89688 12.8969C8.49479 12.299 9.21667 12 10.0625 12C10.9083 12 11.6302 12.299 12.2281 12.8969C12.826 13.4948 13.125 14.2167 13.125 15.0625C13.125 15.9083 12.826 16.6302 12.2281 17.2281C11.6302 17.826 10.9083 18.125 10.0625 18.125ZM10.0625 16.375C10.4271 16.375 10.7371 16.2475 10.9926 15.9926C11.2481 15.7377 11.3756 15.4277 11.375 15.0625C11.3744 14.6973 11.247 14.3876 10.9926 14.1333C10.7383 13.8789 10.4283 13.7512 10.0625 13.75C9.69675 13.7488 9.387 13.8766 9.13325 14.1333C8.8795 14.3899 8.75175 14.6997 8.75 15.0625C8.74825 15.4253 8.876 15.7354 9.13325 15.9926C9.3905 16.2499 9.70025 16.3773 10.0625 16.375ZM17.9375 26C17.0917 26 16.3698 25.701 15.7719 25.1031C15.174 24.5052 14.875 23.7833 14.875 22.9375C14.875 22.0917 15.174 21.3698 15.7719 20.7719C16.3698 20.174 17.0917 19.875 17.9375 19.875C18.7833 19.875 19.5052 20.174 20.1031 20.7719C20.701 21.3698 21 22.0917 21 22.9375C21 23.7833 20.701 24.5052 20.1031 25.1031C19.5052 25.701 18.7833 26 17.9375 26ZM17.9375 24.25C18.3021 24.25 18.6121 24.1225 18.8676 23.8676C19.1231 23.6127 19.2506 23.3027 19.25 22.9375C19.2494 22.5723 19.122 22.2626 18.8676 22.0082C18.6133 21.7539 18.3033 21.6262 17.9375 21.625C17.5717 21.6238 17.262 21.7516 17.0082 22.0082C16.7545 22.2649 16.6267 22.5747 16.625 22.9375C16.6233 23.3003 16.751 23.6104 17.0082 23.8676C17.2655 24.1249 17.5752 24.2523 17.9375 24.25ZM7.6125 25.3875C7.45208 25.2271 7.37188 25.0229 7.37188 24.775C7.37188 24.5271 7.45208 24.3229 7.6125 24.1625L19.1625 12.6125C19.3229 12.4521 19.5271 12.3719 19.775 12.3719C20.0229 12.3719 20.2271 12.4521 20.3875 12.6125C20.5479 12.7729 20.6281 12.9771 20.6281 13.225C20.6281 13.4729 20.5479 13.6771 20.3875 13.8375L8.8375 25.3875C8.67708 25.5479 8.47292 25.6281 8.225 25.6281C7.97708 25.6281 7.77292 25.5479 7.6125 25.3875Z" fill="#49B348"/>
</svg>
