<svg width="47" height="49" viewBox="0 0 47 49" fill="none" xmlns="http://www.w3.org/2000/svg">
<path d="M0.0692159 17.0413C1.12215 13.7902 2.85101 10.7987 5.14222 8.26328C5.33173 8.05384 5.57921 7.90545 5.85323 7.83695C6.12725 7.76844 6.41544 7.78292 6.68122 7.87853L12.1475 9.83363C12.5367 9.97259 12.9514 10.0253 13.3629 9.98801C13.7744 9.95075 14.1729 9.82446 14.5308 9.61787C14.8887 9.41129 15.1973 9.12935 15.4354 8.79162C15.6735 8.45388 15.8352 8.06841 15.9095 7.66193L16.9526 1.94483C17.003 1.66652 17.1351 1.40951 17.332 1.20649C17.5289 1.00348 17.7818 0.86366 18.0584 0.804829C21.397 0.0910985 24.8487 0.0910985 28.1873 0.804829C28.464 0.86366 28.7168 1.00348 28.9138 1.20649C29.1107 1.40951 29.2427 1.66652 29.2931 1.94483L30.3362 7.66193C30.4105 8.06841 30.5723 8.45388 30.8103 8.79162C31.0484 9.12935 31.3571 9.41129 31.7149 9.61787C32.0728 9.82446 32.4713 9.95075 32.8828 9.98801C33.2944 10.0253 33.7091 9.97259 34.0982 9.83363L39.5674 7.87853C39.8334 7.78325 40.1218 7.76923 40.3958 7.83825C40.6699 7.90727 40.9172 8.0562 41.1064 8.26613C43.3972 10.8007 45.1261 13.7912 46.1794 17.0413C46.2659 17.31 46.2707 17.5984 46.1931 17.8699C46.1154 18.1414 45.9589 18.3837 45.7433 18.566L41.3116 22.328C40.9967 22.5956 40.7439 22.9284 40.5704 23.3034C40.397 23.6784 40.3072 24.0866 40.3072 24.4997C40.3072 24.9129 40.397 25.3211 40.5704 25.6961C40.7439 26.0711 40.9967 26.4039 41.3116 26.6714L45.7433 30.4334C45.9584 30.6161 46.1144 30.8586 46.1915 31.13C46.2686 31.4015 46.2634 31.6897 46.1765 31.9582C45.1236 35.2092 43.3947 38.2007 41.1035 40.7362C40.914 40.9456 40.6665 41.094 40.3925 41.1625C40.1185 41.231 39.8303 41.2165 39.5645 41.1209L34.0982 39.1658C33.7091 39.0269 33.2944 38.9742 32.8828 39.0114C32.4713 39.0487 32.0728 39.175 31.7149 39.3816C31.3571 39.5882 31.0484 39.8701 30.8103 40.2078C30.5723 40.5456 30.4105 40.931 30.3362 41.3375L29.2931 47.0575C29.2422 47.3353 29.1099 47.5917 28.9131 47.7941C28.7162 47.9966 28.4636 48.136 28.1873 48.1946C24.8487 48.9084 21.397 48.9084 18.0584 48.1946C17.7818 48.1358 17.5289 47.996 17.332 47.793C17.1351 47.5899 17.003 47.3329 16.9526 47.0546L15.9095 41.3375C15.8352 40.931 15.6735 40.5456 15.4354 40.2078C15.1973 39.8701 14.8887 39.5882 14.5308 39.3816C14.1729 39.175 13.7744 39.0487 13.3629 39.0114C12.9514 38.9742 12.5367 39.0269 12.1475 39.1658L6.68122 41.1209C6.41517 41.2162 6.1268 41.2302 5.85276 41.1612C5.57873 41.0922 5.3314 40.9433 5.14222 40.7333C2.85135 38.1987 1.12251 35.2082 0.0692159 31.9582C-0.017663 31.6897 -0.0228718 31.4015 0.0542498 31.13C0.131371 30.8586 0.287351 30.6161 0.502416 30.4334L4.93417 26.6714C5.24899 26.4039 5.50188 26.0711 5.67531 25.6961C5.84874 25.3211 5.93857 24.9129 5.93857 24.4997C5.93857 24.0866 5.84874 23.6784 5.67531 23.3034C5.50188 22.9284 5.24899 22.5956 4.93417 22.328L0.502416 18.566C0.287351 18.3833 0.131371 18.1409 0.0542498 17.8694C-0.0228718 17.598 -0.017663 17.3098 0.0692159 17.0413ZM3.09022 17.0242L6.77812 20.1535C7.40874 20.6886 7.91537 21.3545 8.26284 22.105C8.6103 22.8555 8.79028 23.6727 8.79028 24.4997C8.79028 25.3268 8.6103 26.1439 8.26284 26.8944C7.91537 27.645 7.40874 28.3109 6.77812 28.846L3.09307 31.9753C3.92527 34.204 5.12512 36.2788 6.63847 38.1085L11.1871 36.484C11.4816 36.3795 11.7808 36.2987 12.0848 36.2417C13.572 35.9708 15.1058 36.3018 16.349 37.1617C17.5922 38.0217 18.4429 39.3402 18.7139 40.8274L19.5803 45.584C21.926 45.9729 24.3197 45.9729 26.6654 45.584L27.5318 40.8245C27.6794 40.0107 28.0025 39.2389 28.4786 38.5626C28.9546 37.8863 29.5723 37.3219 30.2887 36.9085C31.005 36.4952 31.8028 36.2428 32.6266 36.169C33.4503 36.0952 34.2803 36.2017 35.0587 36.4811L39.6073 38.1085C41.123 36.2757 42.3222 34.2028 43.1555 31.9753L39.4676 28.846C38.8361 28.3114 38.3287 27.6457 37.9807 26.8951C37.6326 26.1445 37.4523 25.3271 37.4523 24.4997C37.4523 23.6724 37.6326 22.8549 37.9807 22.1044C38.3287 21.3538 38.8361 20.688 39.4676 20.1535L43.1555 17.0242C42.3222 14.7966 41.123 12.7237 39.6073 10.891L35.0587 12.5155C34.2804 12.7934 33.451 12.8987 32.6279 12.8242C31.8048 12.7497 31.0078 12.4971 30.2921 12.084C29.5764 11.6708 28.9591 11.1069 28.4829 10.4315C28.0068 9.75598 27.6832 8.98504 27.5347 8.17208L26.6654 3.41543C24.3197 3.02655 21.926 3.02655 19.5803 3.41543L18.7139 8.17208C18.5657 8.98529 18.2424 9.75654 17.7664 10.4324C17.2904 11.1082 16.6732 11.6724 15.9574 12.0858C15.2416 12.4993 14.4445 12.7521 13.6213 12.8268C12.798 12.9015 11.9684 12.7962 11.1899 12.5183L6.63847 10.891C5.12375 12.7239 3.92265 14.7968 3.09022 17.0242ZM16.0036 24.4997C16.0036 22.6101 16.7542 20.7978 18.0904 19.4616C19.4266 18.1254 21.2389 17.3747 23.1286 17.3747C25.0182 17.3747 26.8305 18.1254 28.1667 19.4616C29.5029 20.7978 30.2536 22.6101 30.2536 24.4997C30.2536 26.3894 29.5029 28.2017 28.1667 29.5379C26.8305 30.8741 25.0182 31.6247 23.1286 31.6247C21.2389 31.6247 19.4266 30.8741 18.0904 29.5379C16.7542 28.2017 16.0036 26.3894 16.0036 24.4997ZM18.8536 24.4997C18.8536 25.6335 19.304 26.7209 20.1057 27.5226C20.9074 28.3243 21.9948 28.7747 23.1286 28.7747C24.2624 28.7747 25.3497 28.3243 26.1515 27.5226C26.9532 26.7209 27.4036 25.6335 27.4036 24.4997C27.4036 23.3659 26.9532 22.2786 26.1515 21.4768C25.3497 20.6751 24.2624 20.2247 23.1286 20.2247C21.9948 20.2247 20.9074 20.6751 20.1057 21.4768C19.304 22.2786 18.8536 23.3659 18.8536 24.4997Z" fill="#49B348"/>
</svg>
