<svg width="20" height="15" viewBox="0 0 20 15" fill="none" xmlns="http://www.w3.org/2000/svg">
<path d="M18.9999 -0.000104904L0.999912 -0.000104904C0.817671 0.000466347 0.639036 0.0507298 0.483236 0.145273C0.327436 0.239817 0.200371 0.37506 0.115717 0.536448C0.0310631 0.697835 -0.00797462 0.879255 0.00280952 1.06118C0.0135918 1.2431 0.0737858 1.41864 0.176912 1.5689L9.17691 14.5689C9.54991 15.1079 10.4479 15.1079 10.8219 14.5689L19.8219 1.5689C19.9261 1.41895 19.9872 1.24333 19.9985 1.0611C20.0099 0.878874 19.9711 0.697017 19.8864 0.535288C19.8017 0.373559 19.6742 0.238141 19.518 0.143751C19.3617 0.0493612 19.1825 -0.000392914 18.9999 -0.000104904ZM9.99991 12.2429L2.90791 1.9999L17.0919 1.9999L9.99991 12.2429Z" fill="#FAFAFA"/>
</svg>
