<svg width="87" height="87" viewBox="0 0 87 87" fill="none" xmlns="http://www.w3.org/2000/svg">
<path d="M43.1369 44.2067C42.1587 44.2067 41.316 43.9862 40.6087 43.5453C39.9061 43.1045 39.3619 42.4959 38.9761 41.7198C38.5949 40.9391 38.3951 40.0458 38.3768 39.0401C38.3997 38.0021 38.6041 37.0974 38.9899 36.3259C39.3756 35.5497 39.9199 34.9481 40.6225 34.521C41.3252 34.0893 42.1633 33.8735 43.1369 33.8735C43.61 33.8735 44.0646 33.9332 44.5009 34.0526C44.9418 34.1674 45.3505 34.3419 45.7271 34.5761L44.8453 35.947C44.6065 35.7771 44.3379 35.6485 44.0394 35.5612C43.7454 35.474 43.4446 35.4303 43.1369 35.4303C42.4664 35.4303 41.9107 35.5819 41.4698 35.885C41.0335 36.1881 40.7029 36.6129 40.4778 37.1594C40.2574 37.7013 40.1449 38.3282 40.1403 39.0401C40.1449 39.7657 40.2597 40.3995 40.4847 40.9414C40.7098 41.4833 41.0427 41.9035 41.4836 42.202C41.9291 42.5005 42.4802 42.6475 43.1369 42.6429C43.7799 42.6567 44.3539 42.4868 44.8591 42.1331L45.7271 43.4902C45.3505 43.729 44.9395 43.9081 44.494 44.0276C44.0531 44.147 43.6008 44.2067 43.1369 44.2067ZM37.2883 40.8449V39.5429H43.8051V40.8449H37.2883ZM37.2883 38.551V37.249H43.8051V38.551H37.2883Z" fill="#49B348"/>
<path fill-rule="evenodd" clip-rule="evenodd" d="M21.2463 23.4677L19.7284 23.0609L19.2211 24.9541L17.3238 24.4457L17.8311 22.5526L17.3359 22.4199L17.337 22.4157L15.5554 21.9383L16.0638 20.0409L17.8454 20.5183L20.123 12.0182L18.3414 11.5408L18.8498 9.64345L21.1266 10.2535L21.635 8.35617L23.5323 8.86456L23.0239 10.7619L24.5418 11.1686L25.0502 9.27128L26.9476 9.77967L26.4392 11.677L25.9838 11.555C28.294 12.174 29.4254 13.747 28.9207 15.6306C28.5598 16.9774 27.2527 17.8331 25.896 17.6794L25.8777 17.7477C27.5139 18.3232 28.4149 19.871 27.9787 21.4989C27.4174 23.5936 25.5349 24.522 23.0347 23.9424L23.1448 23.9719L22.6364 25.8692L20.739 25.3608L21.2463 23.4677ZM22.6918 12.7285L21.8354 15.9247L23.6849 16.4203C25.0571 16.788 26.0033 16.3928 26.2819 15.3531C26.5468 14.3642 26.0069 13.6167 24.8055 13.2948L22.6918 12.7285ZM20.4241 21.1918L22.6402 21.7856C24.1232 22.183 25.0932 21.7669 25.4083 20.591C25.7167 19.44 25.0543 18.6049 23.5371 18.1983L21.3814 17.6207L20.4241 21.1918Z" fill="#49B348"/>
<path d="M56.8931 34.8767V33.2441H58.5533V34.8767H56.8931ZM56.8931 23.8546V22.222H58.5533V23.8546H56.8931ZM57.761 33.7125C57.063 33.7125 56.4384 33.5839 55.8873 33.3268C55.3362 33.0696 54.8838 32.7068 54.5302 32.2383C54.1812 31.7699 53.9584 31.2142 53.862 30.5712L55.5015 30.3095C55.6301 30.8743 55.9057 31.3244 56.3282 31.6597C56.7553 31.9903 57.265 32.1557 57.8575 32.1557C58.427 32.1557 58.8954 32.0225 59.2628 31.7561C59.6302 31.4851 59.8139 31.143 59.8139 30.7297C59.8139 30.4403 59.7266 30.2061 59.5521 30.027C59.3776 29.8433 59.0975 29.6918 58.7117 29.5724L56.3213 28.8284C54.9297 28.3967 54.234 27.5516 54.234 26.2933C54.234 25.7054 54.374 25.1934 54.6542 24.7571C54.9389 24.3162 55.3385 23.9786 55.8528 23.7444C56.3672 23.5056 56.9734 23.3885 57.6715 23.3931C58.319 23.3977 58.8954 23.5148 59.4006 23.7444C59.9104 23.9741 60.3329 24.3047 60.6681 24.7364C61.008 25.1635 61.2491 25.6825 61.3914 26.2933L59.6899 26.6033C59.6256 26.2772 59.4993 25.9902 59.311 25.7422C59.1227 25.4942 58.8862 25.3013 58.6015 25.1635C58.3167 25.0257 57.9999 24.9523 57.6508 24.9431C57.3156 24.9385 57.0148 24.9913 56.7484 25.1015C56.482 25.2071 56.2708 25.3587 56.1146 25.5562C55.9585 25.7491 55.8804 25.9672 55.8804 26.2106C55.8804 26.4816 55.9883 26.7135 56.2042 26.9064C56.4246 27.0993 56.7714 27.2646 57.2444 27.4024L59.0286 27.919C59.8874 28.167 60.5051 28.5046 60.8817 28.9317C61.2629 29.3542 61.4534 29.9168 61.4534 30.6195C61.4534 31.2349 61.2996 31.7745 60.9919 32.2383C60.6842 32.7022 60.2525 33.065 59.6968 33.3268C59.1411 33.5839 58.4958 33.7125 57.761 33.7125Z" fill="#49B348"/>
<path d="M22.0968 51V49.4431H22.2828C22.563 49.4431 22.8018 49.3398 22.9993 49.1331C23.2013 48.9265 23.3024 48.6877 23.3024 48.4167V43.5256C23.3024 43.0205 23.4264 42.5681 23.6744 42.1686C23.927 41.7644 24.2645 41.4475 24.687 41.2179C25.1141 40.9883 25.5895 40.8735 26.113 40.8735C26.5906 40.8735 27.0063 40.9814 27.3599 41.1972C27.7135 41.4085 28.0166 41.7047 28.2692 42.0859C28.5218 42.4625 28.7331 42.8965 28.903 43.3879L27.415 43.877C27.2818 43.4269 27.1142 43.0756 26.9121 42.823C26.71 42.5658 26.4414 42.4372 26.1061 42.4372C25.7709 42.4372 25.4999 42.5474 25.2932 42.7679C25.0912 42.9837 24.9901 43.2639 24.9901 43.6083L24.9833 49.4431H28.2554V51H22.0968ZM22.0968 46.8047V45.241H27.0774V46.8047H22.0968Z" fill="#49B348"/>
<circle cx="23" cy="17" r="14" stroke="#49B348" stroke-width="2"/>
<path d="M21 66.3429V54H30V72" stroke="#49B348" stroke-width="2" stroke-linecap="round" stroke-linejoin="round"/>
<path d="M37 74V47H46V75" stroke="#49B348" stroke-width="2" stroke-linecap="round" stroke-linejoin="round"/>
<path d="M53 73.5V38H62V68.5" stroke="#49B348" stroke-width="2" stroke-linecap="round" stroke-linejoin="round"/>
<path d="M49.8776 7.81946L42.3278 10.0452C42.1802 10.0888 42.135 10.2757 42.2464 10.3819L48.2231 16.075" stroke="#49B348" stroke-width="2" stroke-linecap="round"/>
<mask id="path-10-inside-1_3872_20418" fill="white">
<path d="M12.6284 33.5935C12.0837 33.4227 11.5019 33.7254 11.3482 34.2752C9.56859 40.6385 9.73544 47.3981 11.8402 53.6781C14.0546 60.2852 18.3008 66.0233 23.9719 70.0724C29.643 74.1215 36.4489 76.2745 43.4171 76.2236C50.3852 76.1727 57.1589 73.9206 62.7703 69.7891C68.3817 65.6576 72.5437 59.8581 74.6614 53.2194C76.779 46.5807 76.7442 39.4425 74.5616 32.8248C72.3791 26.2071 68.1607 20.4486 62.5092 16.3721C57.1375 12.4975 50.7323 10.331 44.1276 10.1408C43.5569 10.1244 43.0951 10.59 43.0965 11.1608C43.0979 11.7317 43.5621 12.1915 44.1326 12.2091C50.3014 12.3997 56.2816 14.4292 61.2998 18.0488C66.5978 21.8702 70.5524 27.2685 72.5984 33.4723C74.6444 39.676 74.6771 46.3677 72.6918 52.5912C70.7066 58.8146 66.805 64.2513 61.5446 68.1244C56.2842 71.9974 49.9342 74.1087 43.402 74.1564C36.8697 74.2041 30.4896 72.1858 25.1732 68.3899C19.8568 64.5941 15.8762 59.2149 13.8003 53.0211C11.8341 47.1545 11.6719 40.8413 13.3217 34.8942C13.4743 34.3442 13.1731 33.7644 12.6284 33.5935Z"/>
</mask>
<path d="M12.6284 33.5935C12.0837 33.4227 11.5019 33.7254 11.3482 34.2752C9.56859 40.6385 9.73544 47.3981 11.8402 53.6781C14.0546 60.2852 18.3008 66.0233 23.9719 70.0724C29.643 74.1215 36.4489 76.2745 43.4171 76.2236C50.3852 76.1727 57.1589 73.9206 62.7703 69.7891C68.3817 65.6576 72.5437 59.8581 74.6614 53.2194C76.779 46.5807 76.7442 39.4425 74.5616 32.8248C72.3791 26.2071 68.1607 20.4486 62.5092 16.3721C57.1375 12.4975 50.7323 10.331 44.1276 10.1408C43.5569 10.1244 43.0951 10.59 43.0965 11.1608C43.0979 11.7317 43.5621 12.1915 44.1326 12.2091C50.3014 12.3997 56.2816 14.4292 61.2998 18.0488C66.5978 21.8702 70.5524 27.2685 72.5984 33.4723C74.6444 39.676 74.6771 46.3677 72.6918 52.5912C70.7066 58.8146 66.805 64.2513 61.5446 68.1244C56.2842 71.9974 49.9342 74.1087 43.402 74.1564C36.8697 74.2041 30.4896 72.1858 25.1732 68.3899C19.8568 64.5941 15.8762 59.2149 13.8003 53.0211C11.8341 47.1545 11.6719 40.8413 13.3217 34.8942C13.4743 34.3442 13.1731 33.7644 12.6284 33.5935Z" stroke="#49B348" stroke-width="3.06169" mask="url(#path-10-inside-1_3872_20418)"/>
</svg>
